<svg width="465.022" height="465.022" xmlns="http://www.w3.org/2000/svg">

 <g>
  <title>background</title>
  <rect fill="none" id="canvas_background" height="402" width="582" y="-1" x="-1"/>
 </g>
 <g>
  <title>Layer 1</title>
  <g id="svg_1">
   <g id="Bicycle_2_">
    <g id="svg_2">
     <path fill="#ffffff" id="svg_3" d="m374.548004,190.811005c-14.330994,0 -27.709015,3.718994 -39.772003,9.75l-27.980988,-38.071991l11.541992,-26.190002l33.490997,0l0,-22.675003l-68.024994,0l0,22.675995l9.885986,0l-9.97699,22.651993l-117.889008,0l-0.543991,-0.770996c4.942993,-17.141998 8.343994,-32.878998 10.475998,-44.533997l51.33699,-0.045006l0,-22.674995l-70.269989,-0.068001l0,0.023003l-0.181,-0.023003c-0.068008,0.499001 -6.462006,51.381996 -25.237,96.437004c-1.610001,3.854996 -3.356003,7.459991 -5.057007,11.132996c-11.019997,-4.875 -23.128998,-7.619003 -35.894997,-7.619003c-49.886002,0.001007 -90.452003,41.111008 -90.452003,91.677002c0,50.542999 40.566002,91.675995 90.450996,91.675995c49.862999,0 90.428001,-41.132996 90.428001,-91.675995c0,-29.363998 -13.944992,-55.281998 -35.192001,-72.061996c2.177002,-4.64801 4.376007,-9.296997 6.440002,-14.240005c1.610001,-3.832001 2.970001,-7.709991 4.399002,-11.563995l79.522003,109.497986l49.04599,-1.927002c4.85202,45.940002 42.878998,81.971008 89.476013,81.971008c49.863007,0 90.450989,-41.132996 90.450989,-91.675995c-0.022003,-50.565994 -40.587982,-91.675995 -90.472992,-91.675995zm-216.162003,91.675995c0,37.958008 -30.474998,68.864014 -67.935005,68.864014s-67.934986,-30.884003 -67.934986,-68.864014s30.474998,-68.863998 67.934986,-68.863998c9.093002,0 17.755005,1.882004 25.691002,5.192993c-10.499001,19.138 -20.792999,33.922012 -27.346001,42.651993c-11.405998,1.179016 -20.43,10.499023 -20.43,22.222015c0,12.516998 10.158005,22.674988 22.675003,22.674988s22.675003,-10.15799 22.675003,-22.674988c0,-4.626007 -1.723007,-8.684998 -4.104004,-12.266998c6.848,-9.386993 16.122002,-23.128998 25.600006,-40.31601c14.080994,12.628006 23.173996,30.859009 23.173996,51.380005zm157.206985,-68.932007c-15.985992,14.080994 -26.960999,33.55899 -30.15799,55.781006l-26.212006,1.042999l36.665985,-83.172012l19.70401,26.348007zm-7.528992,54.895996c2.970001,-14.511993 10.612,-27.188004 21.042999,-36.778992l26.098999,34.919983l-47.141998,1.859009zm-34.419983,-86.686981l-34.466003,78.18399l-56.778992,-78.18399l91.244995,0zm100.903992,169.565002c-34.466003,0 -62.718994,-26.279999 -67.050018,-60.044006l45.486023,-1.790985c2.608002,9.636993 11.042999,16.847992 21.496002,16.847992c12.516998,0 22.674988,-10.15799 22.674988,-22.674988c0,-10.544006 -7.346985,-19.002014 -17.096985,-21.541016l-31.745026,-43.151001c8.072021,-3.446991 16.938019,-5.350998 26.212006,-5.350998c37.459015,0 67.934998,30.884003 67.934998,68.863998c0.045013,37.957001 -30.429993,68.841003 -67.911987,68.841003z"/>
    </g>
   </g>
  </g>
  <g id="svg_4"/>
  <g id="svg_5"/>
  <g id="svg_6"/>
  <g id="svg_7"/>
  <g id="svg_8"/>
  <g id="svg_9"/>
  <g id="svg_10"/>
  <g id="svg_11"/>
  <g id="svg_12"/>
  <g id="svg_13"/>
  <g id="svg_14"/>
  <g id="svg_15"/>
  <g id="svg_16"/>
  <g id="svg_17"/>
  <g id="svg_18"/>
 </g>
</svg>