<svg version="1.1" xmlns="http://www.w3.org/2000/svg" xmlns:xlink="http://www.w3.org/1999/xlink" width="432.3934307098389" height="330.75408935546875"><rect id="backgroundrect" width="100%" height="100%" x="0" y="0" fill="none" stroke="none"/>



<g class="currentLayer" style=""><title>Layer 1</title><path fill="#444444" d="M8.1 3.1v0 0z" id="svg_1"/><path fill="#444444" d="M15.1 3.2v0-0.2z" id="svg_2"/><path fill="#ffffff" d="M281.5773639146955,1.5 c-36.97480371274196,0 -56.884315490722656,9.905655054832323 -68.26118130132272,19.811310109664646 c-11.376863267673002,-9.905655054832323 -31.286374198011345,-19.811310109664646 -68.26118130132272,-19.811310109664646 c-99.54755210876465,0 -145.05500178888724,49.52827453613281 -145.05500178888724,49.52827453613281 v0 v0 v269.92908677515516 l184.87402534484863,-22.287722950836724 c0,0 5.688431633836501,9.905655054832323 8.53264766266534,12.382068634033203 h36.97480371274196 c2.8442158169182505,-2.4764137637080808 8.53264766266534,-12.382068634033203 8.53264766266534,-12.382068634033203 l184.87402534484863,22.287722950836724 v-269.92908677515516 c2.8442158169182505,0 -39.819020165391976,-49.52827453613281 -142.21078872680664,-49.52827453613281 zM199.0951173029698,261.52344131469727 c-17.06529532533068,-4.9528275274161615 -36.97480371274196,-7.429241475631443 -65.41696145810329,-9.905655054832323 c-2.8442158169182505,0 -2.8442158169182505,0 -5.688431633836501,0 c-39.819020165391976,0 -73.94960742548392,9.905655054832323 -99.54755210876465,17.334895792434963 v-215.4479895087934 c14.221078872680664,-9.905655054832323 51.19588258542262,-37.14620590209961 116.61284404352591,-37.14620590209961 c48.351669523342025,0 54.04009903807264,22.287722950836724 54.04009903807264,24.764137268066406 c0,0 0,0 0,0 v220.40081223902234 zM398.1902215204991,268.9526872185015 c-28.442157745361328,-9.905655054832323 -59.728528552803255,-17.334895792434963 -99.54755210876465,-17.334895792434963 c-2.8442158169182505,0 -5.688431633836501,0 -5.688431633836501,0 c-28.442157745361328,0 -36.97480371274196,4.9528275274161615 -65.41696145810329,9.905655054832323 v-220.40081223902234 c0,0 0,0 0,0 c0,-4.9528275274161615 5.688431633836501,-24.764137268066406 54.04009903807264,-24.764137268066406 c65.41696145810329,0 113.76863098144531,24.764137268066406 113.76863098144531,37.14620590209961 v215.4479895087934 z" id="svg_3" class="selected" fill-opacity="1"/></g></svg>