<svg version="1.1" xmlns="http://www.w3.org/2000/svg" xmlns:xlink="http://www.w3.org/1999/xlink" width="464.9016265869141" height="338.67212200164795" style="enable-background:new 0 0 19.291 19.292;" xml:space="preserve"><rect id="backgroundrect" width="100%" height="100%" x="0" y="0" fill="none" stroke="none" style="" class=""/>
















<g class="currentLayer" style=""><title>Layer 1</title><g id="svg_1" class="selected" fill="#ffffff" fill-opacity="1">
	<path d="M158.84226844549767,159.72806840101111 c-7.649273634918757,6.976106428811022 -9.525116689523827,11.983707259755647 -19.55045935310966,25.107075167588846 c6.482081558923937,3.7470668109270377 18.925177506693217,12.398129220035798 27.554058787914073,27.300058598236774 c17.236918881780866,-8.20210494239575 25.282204435584845,-9.445371337850474 34.41130920622345,-15.817112193496996 c59.6518262804866,-41.61489234360033 205.7175125492813,-190.78959346014017 200.69441658193318,-195.10649085241312 C396.6783896833681,-3.364318043239109 211.36588888230517,112.00044365214308 158.84226844549767,159.72806840101111 zM122.07573513359011,196.42169623533118 c-25.90748503967916,-3.7988696846156245 -51.481486096650315,9.77345543262345 -68.55166298707718,43.687001115772546 c-17.091019328765583,33.913545683149096 -47.60474038811935,47.48587131500244 -53.524072384931515,46.657025335985054 c31.847655747863655,9.548976570613377 128.97467315163976,33.96534881414482 153.11052732840744,-58.9860840577694 C142.8559182258382,205.4871741720417 122.07573513359011,196.42169623533118 122.07573513359011,196.42169623533118 z" id="svg_2" fill="#ffffff" fill-opacity="1"/>
</g><g id="svg_3">
</g><g id="svg_4">
</g><g id="svg_5">
</g><g id="svg_6">
</g><g id="svg_7">
</g><g id="svg_8">
</g><g id="svg_9">
</g><g id="svg_10">
</g><g id="svg_11">
</g><g id="svg_12">
</g><g id="svg_13">
</g><g id="svg_14">
</g><g id="svg_15">
</g><g id="svg_16">
</g><g id="svg_17">
</g></g></svg>