<svg id="Layer_1" data-name="Layer 1" xmlns="http://www.w3.org/2000/svg" viewBox="0 0 64 64"><title>child</title><path d="M44,14.31A10.34,10.34,0,0,0,33.69,4H30.31A10.34,10.34,0,0,0,20,14.31V18.6a8.15,8.15,0,0,1-3.2,5.79A2,2,0,0,0,16,26v0a2,2,0,0,0,2,2h4.39a1.58,1.58,0,0,0,1.31-2.46A9.9,9.9,0,0,1,22,20V16a2,2,0,0,1,2-2h7a1,1,0,0,1,0,2H27.18A3.18,3.18,0,0,0,24,19.18v.58a8.26,8.26,0,0,0,5.35,7.79,1,1,0,0,1,.65,1v.17A1.31,1.31,0,0,0,31.31,30h1.37A1.31,1.31,0,0,0,34,28.69v-.19a1,1,0,0,1,.65-1A8,8,0,0,0,40,20V15.58a1,1,0,0,1,2,0V20a9.9,9.9,0,0,1-1.69,5.54A1.58,1.58,0,0,0,41.62,28H46a2,2,0,0,0,2-2v0a2,2,0,0,0-.8-1.59A8.15,8.15,0,0,1,44,18.6V14.31Z"/><path d="M19.15,53.53l.05.07a16,16,0,0,0,25.6,0l.05-.07a1.27,1.27,0,0,0-.71-2A5.47,5.47,0,0,1,40,46.23V35.81A3.82,3.82,0,0,0,36.19,32H27.81A3.82,3.82,0,0,0,24,35.81V46.23a5.47,5.47,0,0,1-4.15,5.31A1.27,1.27,0,0,0,19.15,53.53Zm9.18-12.91A2.5,2.5,0,0,1,31,40.23a2.54,2.54,0,0,0,2.06,0,2.5,2.5,0,0,1,2.65.39A2.6,2.6,0,0,1,36,44l-2,2.86a2.5,2.5,0,0,1-4.12,0l-2-2.85A2.6,2.6,0,0,1,28.32,40.62Z"/><path d="M43,48.65a.6.6,0,0,0,1-.44V39.34A7.31,7.31,0,0,0,41.72,34,5.78,5.78,0,0,1,42,35.81V46.23A3.45,3.45,0,0,0,43,48.65Z"/><path d="M21,48.65a3.45,3.45,0,0,0,1-2.43V35.81A5.78,5.78,0,0,1,22.28,34,7.31,7.31,0,0,0,20,39.34v8.87A.6.6,0,0,0,21,48.65Z"/><path d="M15.51,55.12l-4.71.73a1,1,0,0,0-.8,1A3.17,3.17,0,0,0,13.17,60H22a.46.46,0,0,0,.24-.85,18,18,0,0,1-3.38-2.8A3.86,3.86,0,0,0,15.51,55.12Z"/><path d="M8,58.26V55.5A3.5,3.5,0,0,0,4.5,52a.5.5,0,0,0-.5.5v5.76A1.74,1.74,0,0,0,5.74,60h.52A1.74,1.74,0,0,0,8,58.26Z"/><path d="M54,56.81a1,1,0,0,0-.8-1l-4.71-.73a3.86,3.86,0,0,0-3.39,1.21,18,18,0,0,1-3.38,2.8A.46.46,0,0,0,42,60h8.86A3.17,3.17,0,0,0,54,56.81Z"/><path d="M59.5,52A3.5,3.5,0,0,0,56,55.5v2.76A1.74,1.74,0,0,0,57.74,60h.52A1.74,1.74,0,0,0,60,58.26V52.5A.5.5,0,0,0,59.5,52Z"/></svg>