<svg data-name="Layer 1" xmlns="http://www.w3.org/2000/svg" width="32" height="32"><rect id="backgroundrect" width="100%" height="100%" x="0" y="0" fill="none" stroke="none"/><title/><g class="currentLayer" style=""><title>Layer 1</title><path d="M29.5,5H2.5A2.5,2.5,0,0,0,0,7.5v17A2.5,2.5,0,0,0,2.5,27h27A2.5,2.5,0,0,0,32,24.5V7.5A2.5,2.5,0,0,0,29.5,5ZM31,24.5A1.5,1.5,0,0,1,29.5,26H2.5A1.5,1.5,0,0,1,1,24.5V7.5A1.5,1.5,0,0,1,2.5,6h27A1.5,1.5,0,0,1,31,7.5v17Z" id="svg_1" class="" fill="#ffffff" fill-opacity="1"/><path d="M5,25H27V7H5V25ZM6,8H26V24H6V8Z" id="svg_2" class="" fill="#ffffff" fill-opacity="1"/><circle cx="29" cy="16" r="1" id="svg_3" class="" fill="#ffffff" fill-opacity="1"/></g></svg>