<?xml version="1.0" encoding="UTF-8" standalone="no"?>
<!-- Generator: Adobe Illustrator 19.0.0, SVG Export Plug-In . SVG Version: 6.00 Build 0)  -->

<svg
   xmlns:dc="http://purl.org/dc/elements/1.1/"
   xmlns:cc="http://creativecommons.org/ns#"
   xmlns:rdf="http://www.w3.org/1999/02/22-rdf-syntax-ns#"
   xmlns:svg="http://www.w3.org/2000/svg"
   xmlns="http://www.w3.org/2000/svg"
   xmlns:sodipodi="http://sodipodi.sourceforge.net/DTD/sodipodi-0.dtd"
   xmlns:inkscape="http://www.inkscape.org/namespaces/inkscape"
   version="1.1"
   id="Capa_1"
   x="0px"
   y="0px"
   viewBox="0 0 490.009 490.009"
   style="enable-background:new 0 0 490.009 490.009;"
   xml:space="preserve"
   sodipodi:docname="export1.svg"
   inkscape:version="0.92.3 (2405546, 2018-03-11)"><metadata
   id="metadata45"><rdf:RDF><cc:Work
       rdf:about=""><dc:format>image/svg+xml</dc:format><dc:type
         rdf:resource="http://purl.org/dc/dcmitype/StillImage" /><dc:title></dc:title></cc:Work></rdf:RDF></metadata><defs
   id="defs43" /><sodipodi:namedview
   pagecolor="#ffffff"
   bordercolor="#666666"
   borderopacity="1"
   objecttolerance="10"
   gridtolerance="10"
   guidetolerance="10"
   inkscape:pageopacity="0"
   inkscape:pageshadow="2"
   inkscape:window-width="722"
   inkscape:window-height="480"
   id="namedview41"
   showgrid="false"
   inkscape:zoom="0.4816238"
   inkscape:cx="245.0045"
   inkscape:cy="245.0045"
   inkscape:window-x="0"
   inkscape:window-y="30"
   inkscape:window-maximized="0"
   inkscape:current-layer="g6" />
<g
   id="g8">
	<g
   id="g6">
		<path
   d="M253.354,342.609c4.3,2,9.4,1.4,13-1.6l193.2-160c2.8-2.3,4.4-5.8,4.4-9.4c0-3.7-1.6-7.1-4.5-9.4l-193.1-159.4    c-3.7-3-8.7-3.7-13-1.6c-4.3,2-7,6.3-7,11.1v83.7c-221.5,8-220.6,176-220.2,257.4v9.7c0,5.6,3.7,10.4,9.1,11.8    c1,0.3,2.1,0.4,3.1,0.4c4.3,0,8.4-2.3,10.7-6.2c65.4-115.2,119.2-120.8,197.3-121.1v83.5    C246.354,336.209,249.055,340.509,253.354,342.609z M50.855,319.909c1.1-35.5,5.8-77.8,25.2-113.6c30.8-57,90.5-85.2,182.6-86.1    c6.7-0.1,12.1-5.5,12.1-12.2v-69.8l161.7,133.4l-161.6,133.8v-69.7c0-3.2-1.3-6.4-3.6-8.7s-5.4-3.6-8.7-3.6    C172.855,223.509,113.755,228.609,50.855,319.909z"
   id="path2"
   style="fill:#ffffff;fill-opacity:1" />
		<path
   d="M461.555,477.809v-226c0-6.8-5.5-12.3-12.3-12.3s-12.3,5.5-12.3,12.3v213.7h-386.3v-41.6c0-6.8-5.5-12.3-12.3-12.3    s-12.3,5.5-12.3,12.3v53.8c0,6.8,5.5,12.3,12.3,12.3h410.9C456.055,490.009,461.555,484.509,461.555,477.809z"
   id="path4"
   style="fill:#ffffff;fill-opacity:1" />
	</g>
</g>
<g
   id="g10">
</g>
<g
   id="g12">
</g>
<g
   id="g14">
</g>
<g
   id="g16">
</g>
<g
   id="g18">
</g>
<g
   id="g20">
</g>
<g
   id="g22">
</g>
<g
   id="g24">
</g>
<g
   id="g26">
</g>
<g
   id="g28">
</g>
<g
   id="g30">
</g>
<g
   id="g32">
</g>
<g
   id="g34">
</g>
<g
   id="g36">
</g>
<g
   id="g38">
</g>
</svg>