<?xml version="1.0" encoding="UTF-8" standalone="no"?>
<!-- Generator: Adobe Illustrator 19.0.0, SVG Export Plug-In . SVG Version: 6.00 Build 0)  -->

<svg
   xmlns:dc="http://purl.org/dc/elements/1.1/"
   xmlns:cc="http://creativecommons.org/ns#"
   xmlns:rdf="http://www.w3.org/1999/02/22-rdf-syntax-ns#"
   xmlns:svg="http://www.w3.org/2000/svg"
   xmlns="http://www.w3.org/2000/svg"
   xmlns:sodipodi="http://sodipodi.sourceforge.net/DTD/sodipodi-0.dtd"
   xmlns:inkscape="http://www.inkscape.org/namespaces/inkscape"
   version="1.1"
   id="Capa_1"
   x="0px"
   y="0px"
   viewBox="0 0 490.8 490.8"
   style="enable-background:new 0 0 490.8 490.8;"
   xml:space="preserve"
   sodipodi:docname="import_1.svg"
   inkscape:version="0.92.3 (2405546, 2018-03-11)"><metadata
   id="metadata45"><rdf:RDF><cc:Work
       rdf:about=""><dc:format>image/svg+xml</dc:format><dc:type
         rdf:resource="http://purl.org/dc/dcmitype/StillImage" /><dc:title></dc:title></cc:Work></rdf:RDF></metadata><defs
   id="defs43" /><sodipodi:namedview
   pagecolor="#ffffff"
   bordercolor="#666666"
   borderopacity="1"
   objecttolerance="10"
   gridtolerance="10"
   guidetolerance="10"
   inkscape:pageopacity="0"
   inkscape:pageshadow="2"
   inkscape:window-width="722"
   inkscape:window-height="480"
   id="namedview41"
   showgrid="false"
   inkscape:zoom="0.48084761"
   inkscape:cx="245.39999"
   inkscape:cy="245.39999"
   inkscape:window-x="0"
   inkscape:window-y="30"
   inkscape:window-maximized="0"
   inkscape:current-layer="Capa_1" />
<g
   id="g8"
   style="fill:#fffff6;fill-opacity:1">
	<g
   id="g6"
   style="fill:#fffff6;fill-opacity:1">
		<path
   d="M9.1,297.189c1,0.3,2.1,0.4,3.1,0.4c4.3,0,8.4-2.3,10.7-6.2c47-82.8,96-88.4,151.9-88.8v49.6c0,4.6,2.6,8.8,6.7,10.9    c4.1,2.1,9,1.7,12.7-0.9l152.8-109.8c3.2-2.3,5.1-6,5.1-10s-1.9-7.7-5.1-10l-152.8-109.2c-3.7-2.7-8.6-3-12.7-0.9    c-4.1,2.1-6.6,6.3-6.6,10.9v50.4c-70.2,6-120.1,33.4-148.2,81.5c-23.9,40.8-26.7,88.2-26.7,120.3    C0,290.889,3.8,295.789,9.1,297.189z M187.7,107.289c6.5-0.3,11.6-5.7,11.6-12.2v-38l119.5,85.5l-119.5,85.8v-38    c0-3.2-1.3-6.4-3.6-8.7s-5.4-3.6-8.7-3.6l0,0c-53.8,0-109.1,0-159.9,63.1C35.9,177.989,69.7,113.189,187.7,107.289z"
   id="path2"
   style="fill:#fffff6;fill-opacity:1" />
		<path
   d="M403.9,154.889h62.4v290.4H119.9v-175.9c0-6.8-5.5-12.3-12.3-12.3s-12.2,5.6-12.2,12.3v188.2c0,6.8,5.5,12.3,12.3,12.3    h370.8c6.8,0,12.3-5.5,12.3-12.3v-315c0-6.8-5.5-12.3-12.3-12.3h-74.7c-6.8,0-12.3,5.5-12.3,12.3    C391.6,149.389,397.1,154.889,403.9,154.889z"
   id="path4"
   style="fill:#fffff6;fill-opacity:1" />
	</g>
</g>
<g
   id="g10">
</g>
<g
   id="g12">
</g>
<g
   id="g14">
</g>
<g
   id="g16">
</g>
<g
   id="g18">
</g>
<g
   id="g20">
</g>
<g
   id="g22">
</g>
<g
   id="g24">
</g>
<g
   id="g26">
</g>
<g
   id="g28">
</g>
<g
   id="g30">
</g>
<g
   id="g32">
</g>
<g
   id="g34">
</g>
<g
   id="g36">
</g>
<g
   id="g38">
</g>
</svg>