<?xml version="1.0" encoding="UTF-8" standalone="no"?>
<!-- Generator: Adobe Illustrator 19.0.0, SVG Export Plug-In . SVG Version: 6.00 Build 0)  -->

<svg
   xmlns:dc="http://purl.org/dc/elements/1.1/"
   xmlns:cc="http://creativecommons.org/ns#"
   xmlns:rdf="http://www.w3.org/1999/02/22-rdf-syntax-ns#"
   xmlns:svg="http://www.w3.org/2000/svg"
   xmlns="http://www.w3.org/2000/svg"
   xmlns:sodipodi="http://sodipodi.sourceforge.net/DTD/sodipodi-0.dtd"
   xmlns:inkscape="http://www.inkscape.org/namespaces/inkscape"
   version="1.1"
   id="Capa_1"
   x="0px"
   y="0px"
   viewBox="0 0 486 486"
   style="enable-background:new 0 0 486 486;"
   xml:space="preserve"
   sodipodi:docname="save.svg"
   inkscape:version="0.92.3 (2405546, 2018-03-11)"><metadata
   id="metadata49"><rdf:RDF><cc:Work
       rdf:about=""><dc:format>image/svg+xml</dc:format><dc:type
         rdf:resource="http://purl.org/dc/dcmitype/StillImage" /><dc:title></dc:title></cc:Work></rdf:RDF></metadata><defs
   id="defs47" /><sodipodi:namedview
   pagecolor="#ffffff"
   bordercolor="#666666"
   borderopacity="1"
   objecttolerance="10"
   gridtolerance="10"
   guidetolerance="10"
   inkscape:pageopacity="0"
   inkscape:pageshadow="2"
   inkscape:window-width="722"
   inkscape:window-height="480"
   id="namedview45"
   showgrid="false"
   inkscape:zoom="0.48559671"
   inkscape:cx="243"
   inkscape:cy="243"
   inkscape:window-x="0"
   inkscape:window-y="30"
   inkscape:window-maximized="0"
   inkscape:current-layer="Capa_1" />
<g
   id="g12">
	<g
   id="g10">
		<path
   d="M473.7,485.75c6.8,0,12.3-5.5,12.3-12.3v-359.8c0-3.6-1.6-7-4.3-9.3L363,2.85c-0.2-0.2-0.4-0.3-0.6-0.4    c-0.3-0.2-0.5-0.4-0.8-0.6c-0.4-0.2-0.7-0.4-1.1-0.6c-0.3-0.1-0.6-0.3-0.9-0.4c-0.4-0.2-0.9-0.3-1.3-0.4c-0.3-0.1-0.6-0.2-0.9-0.2    c-0.8-0.1-1.5-0.2-2.3-0.2H12.3C5.5,0.05,0,5.55,0,12.35v461.3c0,6.8,5.5,12.3,12.3,12.3h461.4V485.75z M384.5,461.25h-283v-184.1    c0-3.7,3-6.6,6.6-6.6h269.8c3.7,0,6.6,3,6.6,6.6V461.25z M161.8,24.45h180.9v127.8c0,0.8-0.6,1.4-1.4,1.4h-178    c-0.8,0-1.4-0.7-1.4-1.4V24.45H161.8z M24.6,24.45h112.8v127.8c0,14.3,11.6,25.9,25.9,25.9h178c14.3,0,25.9-11.6,25.9-25.9V38.75    l94.2,80.6v341.9H409v-184.1c0-17.2-14-31.1-31.1-31.1H108.1c-17.2,0-31.1,14-31.1,31.1v184.2H24.6V24.45z"
   id="path2" />
		<path
   d="M227.4,77.65h53.8v32.6c0,6.8,5.5,12.3,12.3,12.3s12.3-5.5,12.3-12.3v-44.8c0-6.8-5.5-12.3-12.3-12.3h-66.1    c-6.8,0-12.3,5.5-12.3,12.3S220.7,77.65,227.4,77.65z"
   id="path4" />
		<path
   d="M304.5,322.85h-123c-6.8,0-12.3,5.5-12.3,12.3s5.5,12.3,12.3,12.3h123c6.8,0,12.3-5.5,12.3-12.3    S311.3,322.85,304.5,322.85z"
   id="path6" />
		<path
   d="M304.5,387.75h-123c-6.8,0-12.3,5.5-12.3,12.3s5.5,12.3,12.3,12.3h123c6.8,0,12.3-5.5,12.3-12.3    S311.3,387.75,304.5,387.75z"
   id="path8" />
	</g>
</g>
<g
   id="g14">
</g>
<g
   id="g16">
</g>
<g
   id="g18">
</g>
<g
   id="g20">
</g>
<g
   id="g22">
</g>
<g
   id="g24">
</g>
<g
   id="g26">
</g>
<g
   id="g28">
</g>
<g
   id="g30">
</g>
<g
   id="g32">
</g>
<g
   id="g34">
</g>
<g
   id="g36">
</g>
<g
   id="g38">
</g>
<g
   id="g40">
</g>
<g
   id="g42">
</g>
</svg>